<svg width="32" height="32" viewBox="0 0 32 32" fill="none" xmlns="http://www.w3.org/2000/svg">
<rect width="32" height="32" fill="#FF914D"/>
<path d="M6.55221 5.86396C2.55221 9.46396 7.21888 22.6973 10.0522 28.864C11.0522 27.8639 29.0522 12.364 25.5522 7.36401C22.7522 3.36401 17.3855 7.69731 15.0522 10.364C15.0522 5.86396 11.5522 1.36396 6.55221 5.86396Z" fill="#FFBD59"/>
<path d="M6.08106 15.8074L6.07242 15.7834L6.04235 15.6997L6.03646 15.6833V15.6659V15.5717C6.03646 15.3879 6.07743 15.214 6.15923 15.0511C6.2055 14.6127 6.26145 14.1908 6.32711 13.7855V13.2079C6.32711 12.7345 6.4938 11.7679 6.8206 10.3201C6.95287 9.71964 7.01818 9.21986 7.01865 8.81913L7.01729 8.80347C6.87304 8.80918 6.72433 8.81489 6.57115 8.8206L6.50558 8.82304L6.47724 8.76388L6.43715 8.6802L6.42733 8.65971V8.63699V8.54286C6.42733 8.28441 6.53979 8.04948 6.7486 7.83922C6.72298 7.78067 6.69558 7.71839 6.66639 7.65239L6.65785 7.63307V7.61195V7.52827V7.51762L6.65841 7.51768C6.66594 7.44694 6.684 7.37932 6.72277 7.32731C6.76556 7.26989 6.8274 7.24 6.89816 7.24H7.09655C7.46211 7.15085 7.81622 7.11204 8.15856 7.12439C8.37009 7.06263 8.60366 7.00099 8.85918 6.93945L8.86018 6.9392L8.86018 6.93921C10.436 6.57685 11.76 6.38707 12.8304 6.37199L13.1206 6.31142C13.2528 6.28094 13.4458 6.26812 13.694 6.26987C13.9448 6.27163 14.2582 6.2884 14.6338 6.3199L14.6345 6.31996C14.9349 6.34722 15.1847 6.33998 15.3859 6.3009L15.514 6.27003L15.517 6.26931L15.517 6.26935C15.5176 6.26919 15.5208 6.26826 15.5272 6.26547C15.5347 6.26221 15.5445 6.25728 15.5571 6.25017C15.5822 6.23591 15.6147 6.21491 15.655 6.18633C15.7354 6.12926 15.8417 6.04573 15.9745 5.93486L15.9917 5.92051L16.0133 5.91486L16.0534 5.9044L16.0608 5.90249L16.0683 5.9017C16.1101 5.89734 16.168 5.89895 16.2144 5.9366C16.2643 5.97713 16.2728 6.03491 16.2689 6.07945V6.21189C16.4312 7.12012 16.2544 7.99267 15.7429 8.82531L15.7213 8.86051L15.6811 8.87019L15.5508 8.90157L15.5314 8.90626L15.5116 8.90308C15.0886 8.83518 14.1002 8.82402 12.5339 8.87292L12.5216 8.8733L12.5096 8.87072C12.1437 8.7917 11.5338 8.74337 10.6739 8.72784C10.4739 9.53498 10.2035 11.1158 9.86279 13.4752C10.1512 13.4326 10.4208 13.4078 10.6714 13.4011L10.8782 13.3422C10.9808 13.3097 11.1253 13.297 11.304 13.2988C11.4859 13.3005 11.712 13.3175 11.9811 13.3491L11.9817 13.3492C12.1994 13.3759 12.3748 13.3684 12.5113 13.3319L12.5981 13.3017L12.6024 13.3002L12.6024 13.3003C12.6466 13.2871 12.6837 13.3033 12.703 13.3148C12.7233 13.3269 12.7402 13.3432 12.7534 13.3579C12.7805 13.3879 12.8093 13.4302 12.8395 13.4807C12.9008 13.583 12.9785 13.7367 13.0724 13.9396M6.08106 15.8074L12.9818 13.9819M6.08106 15.8074C5.938 17.4416 5.87978 19.316 5.90617 21.4303M6.08106 15.8074L6.17777 15.8496C6.03718 17.4718 5.97998 19.3316 6.00617 21.4291C6.03958 24.4764 6.51397 26 7.42935 26H7.56966L7.69995 25.9163C8.31466 21.084 8.84584 17.6672 9.29351 15.6659M13.0724 13.9396C13.0724 13.9397 13.0725 13.9398 13.0725 13.9399L12.9818 13.9819M13.0724 13.9396C13.0723 13.9395 13.0723 13.9394 13.0722 13.9393L12.9818 13.9819M13.0724 13.9396C13.1768 14.1616 13.201 14.434 13.1559 14.7491C13.1107 15.0646 12.9952 15.4294 12.8126 15.8423L12.7951 15.882L12.754 15.8963L12.6638 15.9277L12.6372 15.9369L12.6097 15.9309C12.4599 15.8984 12.2079 15.8783 11.8478 15.8731C11.4896 15.8679 11.0307 15.8774 10.4705 15.9018L10.4544 15.9025L10.439 15.8981C10.2162 15.8353 9.86273 15.7915 9.37297 15.7693M12.9818 13.9819C13.1688 14.3793 13.082 14.986 12.7212 15.8018L12.631 15.8332C12.3102 15.7635 11.5886 15.753 10.4661 15.8018C10.2189 15.7321 9.82804 15.6868 9.29351 15.6659M9.37297 15.7693C9.37903 15.7419 9.38507 15.7146 9.3911 15.6877L9.29351 15.6659M9.37297 15.7693C8.93022 17.7763 8.40555 21.1619 7.79915 25.9289L7.79326 25.9752L7.75399 26.0005L7.6237 26.0841L7.59901 26.1H7.56966H7.42935C6.89985 26.1 6.53083 25.6556 6.29154 24.887C6.04991 24.111 5.92291 22.9565 5.90617 21.4303M9.37297 15.7693C9.34561 15.7681 9.31782 15.7669 9.2896 15.7658L9.29351 15.6659M16.0787 6.00116C16.1455 5.99419 16.1756 6.01859 16.1689 6.07438V6.22081C16.3292 7.1064 16.1588 7.95712 15.6577 8.77297L15.5274 8.80435C15.0931 8.73462 14.0942 8.72416 12.5307 8.77297C12.1432 8.68929 11.4984 8.64048 10.5964 8.62653C10.3922 9.41734 10.1132 11.0389 9.75945 13.4911L16.0787 6.00116ZM16.0787 6.00116L16.0386 6.01162M16.0787 6.00116L16.0386 6.01162M16.0386 6.01162C15.7713 6.23476 15.6043 6.3533 15.5375 6.36725L15.4072 6.39863C15.1934 6.44047 14.9328 6.44744 14.6254 6.41955C13.8771 6.35679 13.3826 6.3533 13.1421 6.40909L16.0386 6.01162ZM5.90617 21.4303C5.90617 21.4303 5.90617 21.4303 5.90617 21.4302L6.00585 21.4291L5.90618 21.4304C5.90618 21.4304 5.90617 21.4303 5.90617 21.4303ZM16.7277 13.6263L16.7283 13.6264L17.0991 10.0596L17.1003 10.0481L17.101 10.0482C17.2337 9.45267 17.299 8.95139 17.299 8.54286V8.30228C17.299 8.28643 17.2945 8.25486 17.2801 8.20272C17.2662 8.15231 17.2448 8.08856 17.2153 8.01087C17.1565 7.85555 17.0674 7.64975 16.9476 7.39271L16.9382 7.37262V7.35046V7.25632V7.24505L16.9389 7.24512C16.9465 7.17712 16.965 7.11147 17.0048 7.06101C17.0485 7.00568 17.11 6.97851 17.1785 6.97851H17.3776C18.7293 6.66837 19.9287 6.99994 20.9651 7.9677L20.9969 7.99735V8.04079V8.30228V8.31551L20.9934 8.32828C20.7706 9.15598 20.256 11.4542 19.449 15.2271C19.4746 15.2172 19.5004 15.207 19.5266 15.1965L19.5376 15.1921L19.5493 15.1904C20.5169 15.0481 21.4531 14.9222 22.3578 14.8127C22.424 14.0706 22.515 13.3826 22.6309 12.749V12.2769C22.6309 11.8921 22.7887 11.1051 23.0952 9.92967L23.0955 9.9285C23.2279 9.44507 23.2924 9.04315 23.2924 8.72067V8.52194C23.2924 8.51341 23.2892 8.49094 23.2759 8.44907C23.2631 8.4092 23.2433 8.35823 23.2157 8.29551C23.1605 8.17016 23.0768 8.00381 22.9638 7.79564L22.9517 7.77332V7.74792V7.67471V7.66786L22.9519 7.66788C22.956 7.60746 22.9724 7.54581 23.0145 7.49841C23.0594 7.44793 23.1203 7.42827 23.182 7.42827H23.3726C24.6591 7.17501 25.8019 7.4434 26.7923 8.23462L26.8299 8.26464V8.31274V8.52194V8.53767L26.8251 8.55264C26.6073 9.22757 26.2943 10.7886 25.8864 13.2452L25.8849 13.2544L25.8817 13.2632C25.7737 13.5575 25.6567 13.948 25.531 14.4359C25.6325 14.4178 25.7241 14.3952 25.8058 14.3683C25.8061 14.3682 25.8063 14.3681 25.8066 14.368L25.9253 14.3267L25.9283 14.3257L25.9283 14.3257C25.9721 14.312 26.0561 14.299 26.1691 14.2853C26.2859 14.2712 26.4433 14.2554 26.6409 14.2379L26.641 14.2379C26.7092 14.232 26.7747 14.2442 26.8336 14.278C26.8918 14.3114 26.9372 14.3619 26.9724 14.4228C27.0412 14.5417 27.0782 14.7129 27.0927 14.9242C27.122 15.3499 27.0626 15.9881 26.9187 16.8332L26.9085 16.8931L26.8507 16.9116L26.7204 16.9535L26.7034 16.9589L26.6856 16.9582C26.3693 16.945 25.796 16.9832 24.96 17.0751C24.677 18.5534 24.3711 20.3965 24.0426 22.6049L24.0348 22.6573L23.9871 22.6803L23.8568 22.743L23.8362 22.7529H23.8134H23.6831C23.1831 22.7529 22.8258 22.3948 22.5944 21.7616C22.363 21.1282 22.2435 20.1888 22.2301 18.9514M16.7277 13.6263L22.3301 18.9502M16.7277 13.6263L16.7278 13.6377C16.7412 15.0487 16.8515 16.1394 17.0619 16.905C17.2029 17.4483 17.7582 17.7372 18.6269 17.8233C19.4814 17.908 20.6837 17.8028 22.2286 17.5128M16.7277 13.6263L22.2298 17.4108M22.2301 18.9514C22.2301 18.9513 22.2301 18.9513 22.2301 18.9513L22.3301 18.9502M22.2301 18.9514C22.2301 18.9514 22.2301 18.9514 22.2301 18.9514L22.3301 18.9502M22.2301 18.9514C22.2239 18.4571 22.2234 17.9776 22.2286 17.5128M22.3301 18.9502C22.3238 18.4496 22.3234 17.9641 22.3288 17.4938C22.2952 17.5002 22.2618 17.5065 22.2286 17.5128M22.2286 17.5128C22.2289 17.4787 22.2294 17.4447 22.2298 17.4108M22.2298 17.4108C22.2631 17.4045 22.2965 17.3982 22.3301 17.3917L22.2298 17.4108ZM9.84789 13.5786C10.149 13.5329 10.4286 13.507 10.6866 13.5007L10.9071 13.438C11.0808 13.3822 11.435 13.3857 11.9695 13.4484C12.1967 13.4763 12.3871 13.4693 12.5408 13.4275L12.631 13.3961L9.84789 13.5786Z" fill="#FFFEFD" stroke="#DF8146" stroke-width="0.2"/>
</svg>
